<svg xmlns="http://www.w3.org/2000/svg" version="1.1" xmlns:xlink="http://www.w3.org/1999/xlink" xmlns:svgjs="http://svgjs.dev/svgjs" viewBox="0 0 800 800"><defs><linearGradient x1="50%" y1="0%" x2="50%" y2="100%" id="cccoil-grad"><stop stop-color="hsl(115, 69%, 60%)" stop-opacity="1" offset="0%"></stop><stop stop-color="hsl(205, 69%, 80%)" stop-opacity="1" offset="100%"></stop></linearGradient></defs><g stroke="url(#cccoil-grad)" fill="none" stroke-linecap="round"><circle r="320" cx="400" cy="400" stroke-width="11" stroke-dasharray="1709 2011" transform="rotate(360, 400, 400)"></circle><circle r="304" cx="400" cy="400" stroke-width="11" stroke-dasharray="1538 1910" transform="rotate(341, 400, 400)"></circle><circle r="288" cx="400" cy="400" stroke-width="11" stroke-dasharray="1376 1810" transform="rotate(322, 400, 400)"></circle><circle r="272" cx="400" cy="400" stroke-width="11" stroke-dasharray="1223 1709" transform="rotate(303, 400, 400)"></circle><circle r="256" cx="400" cy="400" stroke-width="11" stroke-dasharray="1079 1608" transform="rotate(284, 400, 400)"></circle><circle r="240" cx="400" cy="400" stroke-width="11" stroke-dasharray="944 1508" transform="rotate(265, 400, 400)"></circle><circle r="224" cx="400" cy="400" stroke-width="11" stroke-dasharray="819 1407" transform="rotate(246, 400, 400)"></circle><circle r="208" cx="400" cy="400" stroke-width="11" stroke-dasharray="702 1307" transform="rotate(227, 400, 400)"></circle><circle r="192" cx="400" cy="400" stroke-width="11" stroke-dasharray="594 1206" transform="rotate(208, 400, 400)"></circle><circle r="176" cx="400" cy="400" stroke-width="11" stroke-dasharray="495 1106" transform="rotate(189, 400, 400)"></circle><circle r="160" cx="400" cy="400" stroke-width="11" stroke-dasharray="405 1005" transform="rotate(171, 400, 400)"></circle><circle r="144" cx="400" cy="400" stroke-width="11" stroke-dasharray="324 905" transform="rotate(152, 400, 400)"></circle><circle r="128" cx="400" cy="400" stroke-width="11" stroke-dasharray="252 804" transform="rotate(133, 400, 400)"></circle><circle r="112" cx="400" cy="400" stroke-width="11" stroke-dasharray="189 704" transform="rotate(114, 400, 400)"></circle><circle r="96" cx="400" cy="400" stroke-width="11" stroke-dasharray="135 603" transform="rotate(95, 400, 400)"></circle><circle r="80" cx="400" cy="400" stroke-width="11" stroke-dasharray="90 503" transform="rotate(76, 400, 400)"></circle><circle r="64" cx="400" cy="400" stroke-width="11" stroke-dasharray="54 402" transform="rotate(57, 400, 400)"></circle><circle r="48" cx="400" cy="400" stroke-width="11" stroke-dasharray="27 302" transform="rotate(38, 400, 400)"></circle><circle r="32" cx="400" cy="400" stroke-width="11" stroke-dasharray="9 201" transform="rotate(19, 400, 400)"></circle><circle r="16" cx="400" cy="400" stroke-width="11" stroke-dasharray="0 101"></circle></g></svg>